<svg id="visual" viewBox="0 0 900 450" width="900" height="450" xmlns="http://www.w3.org/2000/svg" xmlns:xlink="http://www.w3.org/1999/xlink" version="1.1"><rect x="0" y="0" width="900" height="450" fill="#002233"></rect><path d="M0 340L21.5 333.3C43 326.7 86 313.3 128.8 311.8C171.7 310.3 214.3 320.7 257.2 334.7C300 348.7 343 366.3 385.8 358.2C428.7 350 471.3 316 514.2 304.8C557 293.7 600 305.3 642.8 309.2C685.7 313 728.3 309 771.2 319.8C814 330.7 857 356.3 878.5 369.2L900 382L900 451L878.5 451C857 451 814 451 771.2 451C728.3 451 685.7 451 642.8 451C600 451 557 451 514.2 451C471.3 451 428.7 451 385.8 451C343 451 300 451 257.2 451C214.3 451 171.7 451 128.8 451C86 451 43 451 21.5 451L0 451Z" fill="#0188cc" stroke-linecap="round" stroke-linejoin="miter"></path></svg>